<svg width="153" height="32" viewBox="0 0 153 32" fill="none" xmlns="http://www.w3.org/2000/svg">
<path d="M14.328 16.264C15.288 16.568 16.04 17.08 16.584 17.8C17.128 18.504 17.4 19.376 17.4 20.416C17.4 21.888 16.824 23.024 15.672 23.824C14.536 24.608 12.872 25 10.68 25H1.992V8.2H10.2C12.248 8.2 13.816 8.592 14.904 9.376C16.008 10.16 16.56 11.224 16.56 12.568C16.56 13.384 16.36 14.112 15.96 14.752C15.576 15.392 15.032 15.896 14.328 16.264ZM5.856 11.128V15.088H9.72C10.68 15.088 11.408 14.92 11.904 14.584C12.4 14.248 12.648 13.752 12.648 13.096C12.648 12.44 12.4 11.952 11.904 11.632C11.408 11.296 10.68 11.128 9.72 11.128H5.856ZM10.392 22.072C11.416 22.072 12.184 21.904 12.696 21.568C13.224 21.232 13.488 20.712 13.488 20.008C13.488 18.616 12.456 17.92 10.392 17.92H5.856V22.072H10.392ZM23.7556 13.792C24.2036 13.168 24.8036 12.696 25.5556 12.376C26.3236 12.056 27.2036 11.896 28.1956 11.896V15.352C27.7796 15.32 27.4996 15.304 27.3556 15.304C26.2836 15.304 25.4436 15.608 24.8356 16.216C24.2276 16.808 23.9236 17.704 23.9236 18.904V25H20.1796V12.088H23.7556V13.792ZM35.6594 11.896C37.6594 11.896 39.1954 12.376 40.2674 13.336C41.3394 14.28 41.8754 15.712 41.8754 17.632V25H38.3714V23.392C37.6674 24.592 36.3554 25.192 34.4354 25.192C33.4434 25.192 32.5794 25.024 31.8434 24.688C31.1234 24.352 30.5714 23.888 30.1874 23.296C29.8034 22.704 29.6114 22.032 29.6114 21.28C29.6114 20.08 30.0594 19.136 30.9554 18.448C31.8674 17.76 33.2674 17.416 35.1554 17.416H38.1314C38.1314 16.6 37.8834 15.976 37.3874 15.544C36.8914 15.096 36.1474 14.872 35.1554 14.872C34.4674 14.872 33.7874 14.984 33.1154 15.208C32.4594 15.416 31.8994 15.704 31.4354 16.072L30.0914 13.456C30.7954 12.96 31.6354 12.576 32.6114 12.304C33.6034 12.032 34.6194 11.896 35.6594 11.896ZM35.3714 22.672C36.0114 22.672 36.5794 22.528 37.0754 22.24C37.5714 21.936 37.9234 21.496 38.1314 20.92V19.6H35.5634C34.0274 19.6 33.2594 20.104 33.2594 21.112C33.2594 21.592 33.4434 21.976 33.8114 22.264C34.1954 22.536 34.7154 22.672 35.3714 22.672ZM53.2119 11.896C54.8119 11.896 56.0999 12.376 57.0759 13.336C58.0679 14.296 58.5639 15.72 58.5639 17.608V25H54.8199V18.184C54.8199 17.16 54.5959 16.4 54.1479 15.904C53.6999 15.392 53.0519 15.136 52.2039 15.136C51.2599 15.136 50.5079 15.432 49.9479 16.024C49.3879 16.6 49.1079 17.464 49.1079 18.616V25H45.3639V12.088H48.9399V13.6C49.4359 13.056 50.0519 12.64 50.7879 12.352C51.5239 12.048 52.3319 11.896 53.2119 11.896ZM75.3503 7.192V25H71.7743V23.512C70.8463 24.632 69.5023 25.192 67.7423 25.192C66.5263 25.192 65.4223 24.92 64.4303 24.376C63.4543 23.832 62.6863 23.056 62.1263 22.048C61.5663 21.04 61.2863 19.872 61.2863 18.544C61.2863 17.216 61.5663 16.048 62.1263 15.04C62.6863 14.032 63.4543 13.256 64.4303 12.712C65.4223 12.168 66.5263 11.896 67.7423 11.896C69.3903 11.896 70.6783 12.416 71.6063 13.456V7.192H75.3503ZM68.3903 22.12C69.3343 22.12 70.1183 21.8 70.7423 21.16C71.3663 20.504 71.6783 19.632 71.6783 18.544C71.6783 17.456 71.3663 16.592 70.7423 15.952C70.1183 15.296 69.3343 14.968 68.3903 14.968C67.4303 14.968 66.6383 15.296 66.0143 15.952C65.3903 16.592 65.0783 17.456 65.0783 18.544C65.0783 19.632 65.3903 20.504 66.0143 21.16C66.6383 21.8 67.4303 22.12 68.3903 22.12ZM94.5875 8.2V25H91.3955L83.0195 14.8V25H79.1795V8.2H82.3955L90.7475 18.4V8.2H94.5875ZM103.606 11.896C105.606 11.896 107.142 12.376 108.214 13.336C109.286 14.28 109.822 15.712 109.822 17.632V25H106.318V23.392C105.614 24.592 104.302 25.192 102.382 25.192C101.39 25.192 100.526 25.024 99.7903 24.688C99.0703 24.352 98.5183 23.888 98.1343 23.296C97.7503 22.704 97.5583 22.032 97.5583 21.28C97.5583 20.08 98.0063 19.136 98.9023 18.448C99.8143 17.76 101.214 17.416 103.102 17.416H106.078C106.078 16.6 105.83 15.976 105.334 15.544C104.838 15.096 104.094 14.872 103.102 14.872C102.414 14.872 101.734 14.984 101.062 15.208C100.406 15.416 99.8463 15.704 99.3823 16.072L98.0383 13.456C98.7423 12.96 99.5823 12.576 100.558 12.304C101.55 12.032 102.566 11.896 103.606 11.896ZM103.318 22.672C103.958 22.672 104.526 22.528 105.022 22.24C105.518 21.936 105.87 21.496 106.078 20.92V19.6H103.51C101.974 19.6 101.206 20.104 101.206 21.112C101.206 21.592 101.39 21.976 101.758 22.264C102.142 22.536 102.662 22.672 103.318 22.672ZM129.847 11.896C131.463 11.896 132.743 12.376 133.687 13.336C134.647 14.28 135.127 15.704 135.127 17.608V25H131.383V18.184C131.383 17.16 131.167 16.4 130.735 15.904C130.319 15.392 129.719 15.136 128.935 15.136C128.055 15.136 127.359 15.424 126.847 16C126.335 16.56 126.079 17.4 126.079 18.52V25H122.335V18.184C122.335 16.152 121.519 15.136 119.887 15.136C119.023 15.136 118.335 15.424 117.823 16C117.311 16.56 117.055 17.4 117.055 18.52V25H113.311V12.088H116.887V13.576C117.367 13.032 117.951 12.616 118.639 12.328C119.343 12.04 120.111 11.896 120.943 11.896C121.855 11.896 122.679 12.08 123.415 12.448C124.151 12.8 124.743 13.32 125.191 14.008C125.719 13.336 126.383 12.816 127.183 12.448C127.999 12.08 128.887 11.896 129.847 11.896ZM151.371 18.592C151.371 18.64 151.347 18.976 151.299 19.6H141.531C141.707 20.4 142.123 21.032 142.779 21.496C143.435 21.96 144.251 22.192 145.227 22.192C145.899 22.192 146.491 22.096 147.003 21.904C147.531 21.696 148.019 21.376 148.467 20.944L150.459 23.104C149.243 24.496 147.467 25.192 145.131 25.192C143.675 25.192 142.387 24.912 141.267 24.352C140.147 23.776 139.283 22.984 138.675 21.976C138.067 20.968 137.763 19.824 137.763 18.544C137.763 17.28 138.059 16.144 138.651 15.136C139.259 14.112 140.083 13.32 141.123 12.76C142.179 12.184 143.355 11.896 144.651 11.896C145.915 11.896 147.059 12.168 148.083 12.712C149.107 13.256 149.907 14.04 150.483 15.064C151.075 16.072 151.371 17.248 151.371 18.592ZM144.675 14.728C143.827 14.728 143.115 14.968 142.539 15.448C141.963 15.928 141.611 16.584 141.483 17.416H147.843C147.715 16.6 147.363 15.952 146.787 15.472C146.211 14.976 145.507 14.728 144.675 14.728Z" fill="white"/>
</svg>
